<svg width="27" height="27" viewBox="0 0 27 27" fill="none" xmlns="http://www.w3.org/2000/svg">
<path d="M5.65273 13.9874H21.0813C21.4236 13.9874 21.7012 13.7098 21.7012 13.3675C21.7012 13.0251 21.4236 12.7476 21.0813 12.7476H5.65273C5.31039 12.7476 5.03283 13.0251 5.03283 13.3675C5.03283 13.7098 5.31039 13.9874 5.65273 13.9874Z" fill="CurrentColor"/>
<path d="M10.7947 18.1352C10.9757 18.1352 11.1551 18.0564 11.2776 17.9045C11.4926 17.638 11.4508 17.2478 11.1843 17.0328L6.64027 13.3677L11.1843 9.70252C11.4508 9.48757 11.4925 9.09729 11.2776 8.83084C11.0627 8.56433 10.6724 8.5226 10.4059 8.73749L5.26373 12.8851C5.11785 13.0028 5.03303 13.1802 5.03303 13.3676C5.03303 13.555 5.11785 13.7324 5.26373 13.8501L10.4059 17.9977C10.5205 18.0903 10.6581 18.1352 10.7947 18.1352Z" fill="currentColor"/>
</svg>
